<svg width="51" height="50" viewBox="0 0 51 50" fill="none" xmlns="http://www.w3.org/2000/svg">
<path d="M32.9992 0H1.53633C1.26147 0 0.997881 0.109122 0.803533 0.303359C0.609184 0.497597 0.5 0.76104 0.5 1.03573V32.4858C0.5 32.7605 0.609184 33.0239 0.803533 33.2182C0.997881 33.4124 1.26147 33.5215 1.53633 33.5215H13.7598C14.0346 33.5215 14.2982 33.4124 14.4926 33.2182C14.6869 33.0239 14.7961 32.7605 14.7961 32.4858C14.7961 32.2111 14.6869 31.9477 14.4926 31.7534C14.2982 31.5592 14.0346 31.4501 13.7598 31.4501H2.58301V2.10254H31.9421V13.2729C31.9421 13.5476 32.0513 13.8111 32.2456 14.0053C32.44 14.1995 32.7036 14.3087 32.9784 14.3087C33.2533 14.3087 33.5169 14.1995 33.7112 14.0053C33.9056 13.8111 34.0148 13.5476 34.0148 13.2729V1.04091C34.0148 0.766219 33.9056 0.502776 33.7112 0.308538C33.5169 0.1143 33.2533 0.00517866 32.9784 0.00517866" fill="#959595"/>
<path d="M49.5134 46.0486C49.383 46.0486 49.2539 46.0743 49.1335 46.1244C49.0131 46.1744 48.9037 46.2477 48.8118 46.3401C48.7198 46.4325 48.647 46.5422 48.5976 46.6628C48.5481 46.7834 48.523 46.9126 48.5237 47.0429V48.0268H47.5392C47.2898 48.0449 47.0564 48.1567 46.8861 48.3397C46.7158 48.5227 46.6211 48.7634 46.6211 49.0134C46.6211 49.2633 46.7158 49.504 46.8861 49.687C47.0564 49.87 47.2898 49.9818 47.5392 49.9999H49.5134C49.7741 49.9985 50.0237 49.8944 50.2081 49.7102C50.3924 49.526 50.4966 49.2765 50.4979 49.016V47.0429C50.4966 46.7823 50.3924 46.5329 50.2081 46.3486C50.0237 46.1644 49.7741 46.0603 49.5134 46.0589" fill="#959595"/>
<path d="M40.2896 48.0167H37.0148C36.7654 48.0348 36.532 48.1466 36.3617 48.3296C36.1914 48.5127 36.0967 48.7533 36.0967 49.0033C36.0967 49.2532 36.1914 49.4939 36.3617 49.6769C36.532 49.86 36.7654 49.9718 37.0148 49.9898H40.2896C40.4252 49.9997 40.5614 49.9814 40.6897 49.9363C40.818 49.8912 40.9356 49.8201 41.0352 49.7276C41.1348 49.635 41.2142 49.5229 41.2685 49.3983C41.3228 49.2737 41.3508 49.1392 41.3508 49.0033C41.3508 48.8674 41.3228 48.7329 41.2685 48.6083C41.2142 48.4837 41.1348 48.3716 41.0352 48.279C40.9356 48.1865 40.818 48.1154 40.6897 48.0703C40.5614 48.0251 40.4252 48.0069 40.2896 48.0167Z" fill="#959595"/>
<path d="M29.7657 48.0167H26.4909C26.3553 48.0069 26.2191 48.0251 26.0908 48.0703C25.9625 48.1154 25.8449 48.1865 25.7453 48.279C25.6458 48.3716 25.5663 48.4837 25.512 48.6083C25.4577 48.7329 25.4297 48.8674 25.4297 49.0033C25.4297 49.1392 25.4577 49.2737 25.512 49.3983C25.5663 49.5229 25.6458 49.635 25.7453 49.7276C25.8449 49.8201 25.9625 49.8912 26.0908 49.9363C26.2191 49.9814 26.3553 49.9997 26.4909 49.9898H29.7657C30.0152 49.9718 30.2485 49.86 30.4188 49.6769C30.5892 49.4939 30.6839 49.2532 30.6839 49.0033C30.6839 48.7533 30.5892 48.5127 30.4188 48.3296C30.2485 48.1466 30.0152 48.0348 29.7657 48.0167Z" fill="#959595"/>
<path d="M19.8952 48.0164H18.9055V47.0428C18.9055 46.7818 18.8018 46.5316 18.6172 46.347C18.4326 46.1625 18.1821 46.0588 17.921 46.0588C17.6599 46.0588 17.4095 46.1625 17.2249 46.347C17.0402 46.5316 16.9365 46.7818 16.9365 47.0428V49.0159C16.9379 49.2764 17.042 49.5259 17.2264 49.7101C17.4107 49.8943 17.6603 49.9984 17.921 49.9998H19.8952C20.1447 49.9817 20.378 49.8699 20.5483 49.6869C20.7187 49.5039 20.8134 49.2632 20.8134 49.0133C20.8134 48.7633 20.7187 48.5226 20.5483 48.3396C20.378 48.1566 20.1447 48.0448 19.8952 48.0267" fill="#959595"/>
<path d="M17.921 30.254C18.1817 30.2526 18.4314 30.1485 18.6157 29.9643C18.8 29.7801 18.9042 29.5306 18.9056 29.2701V25.9971C18.9056 25.7362 18.8018 25.4859 18.6172 25.3014C18.4326 25.1169 18.1822 25.0132 17.921 25.0132C17.6599 25.0132 17.4095 25.1169 17.2249 25.3014C17.0403 25.4859 16.9365 25.7362 16.9365 25.9971V29.2701C16.9359 29.3995 16.9608 29.5277 17.0101 29.6474C17.0593 29.7671 17.1318 29.8758 17.2234 29.9673C17.3149 30.0588 17.4237 30.1313 17.5435 30.1805C17.6632 30.2297 17.7916 30.2547 17.921 30.254Z" fill="#959595"/>
<path d="M16.9365 39.7928C16.9365 40.0538 17.0402 40.304 17.2249 40.4886C17.4095 40.6731 17.6599 40.7768 17.921 40.7768C18.1821 40.7768 18.4326 40.6731 18.6172 40.4886C18.8018 40.304 18.9055 40.0538 18.9055 39.7928V36.5147C18.9055 36.2538 18.8018 36.0035 18.6172 35.819C18.4326 35.6344 18.1821 35.5308 17.921 35.5308C17.6599 35.5308 17.4095 35.6344 17.2249 35.819C17.0402 36.0035 16.9365 36.2538 16.9365 36.5147V39.7928Z" fill="#959595"/>
<path d="M19.8952 16.4475H17.921C17.6599 16.4475 17.4095 16.5512 17.2249 16.7357C17.0402 16.9202 16.9365 17.1705 16.9365 17.4315V19.3994C16.9365 19.6603 17.0402 19.9106 17.2249 20.0951C17.4095 20.2796 17.6599 20.3833 17.921 20.3833C18.1821 20.3833 18.4326 20.2796 18.6172 20.0951C18.8018 19.9106 18.9055 19.6603 18.9055 19.3994V18.4154H19.8952C20.1559 18.4141 20.4055 18.31 20.5899 18.1257C20.7742 17.9415 20.8784 17.692 20.8797 17.4315C20.8804 17.3021 20.8554 17.1738 20.8062 17.0541C20.757 16.9344 20.6845 16.8257 20.5929 16.7342C20.5014 16.6427 20.3926 16.5702 20.2728 16.521C20.153 16.4718 20.0247 16.4468 19.8952 16.4475Z" fill="#959595"/>
<path d="M29.7656 16.4475H26.4909C26.2297 16.4475 25.9793 16.5512 25.7947 16.7357C25.6101 16.9202 25.5063 17.1705 25.5063 17.4315C25.5063 17.6924 25.6101 17.9427 25.7947 18.1272C25.9793 18.3118 26.2297 18.4154 26.4909 18.4154H29.7656C30.0263 18.4141 30.276 18.31 30.4603 18.1257C30.6446 17.9415 30.7488 17.692 30.7502 17.4315C30.7508 17.3021 30.7258 17.1738 30.6766 17.0541C30.6274 16.9344 30.5549 16.8257 30.4633 16.7342C30.3718 16.6427 30.263 16.5702 30.1432 16.521C30.0235 16.4718 29.8951 16.4468 29.7656 16.4475Z" fill="#959595"/>
<path d="M40.2896 16.4475H37.0148C36.7537 16.4475 36.5033 16.5512 36.3186 16.7357C36.134 16.9202 36.0303 17.1705 36.0303 17.4315C36.0303 17.6924 36.134 17.9427 36.3186 18.1272C36.5033 18.3117 36.7537 18.4154 37.0148 18.4154H40.2896C40.5507 18.4154 40.8011 18.3117 40.9857 18.1272C41.1704 17.9427 41.2741 17.6924 41.2741 17.4315C41.2741 17.1705 41.1704 16.9202 40.9857 16.7357C40.8011 16.5512 40.5507 16.4475 40.2896 16.4475Z" fill="#959595"/>
<path d="M49.5129 16.4475H47.5387C47.2776 16.4475 47.0272 16.5512 46.8426 16.7357C46.6579 16.9202 46.5542 17.1705 46.5542 17.4315C46.5542 17.6924 46.6579 17.9427 46.8426 18.1272C47.0272 18.3117 47.2776 18.4154 47.5387 18.4154H48.5232V19.3994C48.5134 19.5349 48.5316 19.6711 48.5768 19.7993C48.6219 19.9275 48.693 20.045 48.7856 20.1445C48.8783 20.2441 48.9904 20.3234 49.1151 20.3777C49.2398 20.432 49.3743 20.46 49.5103 20.46C49.6463 20.46 49.7809 20.432 49.9055 20.3777C50.0302 20.3234 50.1424 20.2441 50.235 20.1445C50.3276 20.045 50.3987 19.9275 50.4439 19.7993C50.489 19.6711 50.5073 19.5349 50.4974 19.3994V17.4315C50.4961 17.1709 50.3919 16.9214 50.2076 16.7372C50.0232 16.553 49.7736 16.4489 49.5129 16.4475Z" fill="#959595"/>
<path d="M49.5128 35.5154C49.3831 35.5147 49.2545 35.5397 49.1344 35.5888C49.0144 35.6379 48.9053 35.7103 48.8133 35.8017C48.7213 35.8932 48.6483 36.0019 48.5985 36.1216C48.5487 36.2413 48.5231 36.3697 48.5231 36.4993V39.793C48.5133 39.9285 48.5315 40.0647 48.5766 40.1929C48.6218 40.3211 48.6929 40.4386 48.7855 40.5382C48.8781 40.6377 48.9903 40.7171 49.115 40.7713C49.2397 40.8256 49.3742 40.8536 49.5102 40.8536C49.6462 40.8536 49.7807 40.8256 49.9054 40.7713C50.0301 40.7171 50.1423 40.6377 50.2349 40.5382C50.3275 40.4386 50.3986 40.3211 50.4438 40.1929C50.4889 40.0647 50.5071 39.9285 50.4973 39.793V36.5149C50.4973 36.2525 50.3941 36.0006 50.2099 35.8136C50.0257 35.6266 49.7753 35.5195 49.5128 35.5154Z" fill="#959595"/>
<path d="M49.5131 24.9924C49.2506 24.9924 48.9989 25.0966 48.8133 25.2821C48.6277 25.4676 48.5234 25.7192 48.5234 25.9816V29.27C48.5415 29.5193 48.6534 29.7525 48.8365 29.9228C49.0196 30.093 49.2604 30.1876 49.5105 30.1876C49.7606 30.1876 50.0015 30.093 50.1846 29.9228C50.3677 29.7525 50.4796 29.5193 50.4976 29.27V25.9971C50.499 25.7338 50.3964 25.4806 50.2121 25.2925C50.0277 25.1043 49.7766 24.9965 49.5131 24.9924Z" fill="#959595"/>
<path d="M42.2896 32.4443C42.2857 32.582 42.2392 32.7151 42.1567 32.8254C42.0741 32.9358 41.9595 33.0179 41.8284 33.0605L36.4758 34.9508C36.2363 35.0345 36.0188 35.1711 35.8394 35.3504C35.66 35.5298 35.5233 35.7471 35.4395 35.9865L33.5637 41.3464C33.5199 41.4807 33.4346 41.5977 33.3201 41.6805C33.2055 41.7633 33.0677 41.8077 32.9264 41.8073C32.7833 41.8071 32.6438 41.7627 32.5269 41.6802C32.41 41.5977 32.3215 41.4811 32.2735 41.3464L26.7654 27.1828C26.7133 27.0577 26.7007 26.9197 26.7294 26.7873C26.7581 26.6549 26.8268 26.5344 26.926 26.4422C26.9882 26.3788 27.0624 26.3283 27.1442 26.2936C27.226 26.2589 27.3139 26.2408 27.4028 26.2402C27.4907 26.241 27.578 26.2549 27.6618 26.2817L41.8543 31.7918C41.9908 31.834 42.1087 31.9219 42.1879 32.0407C42.2672 32.1596 42.3031 32.3021 42.2896 32.4443Z" fill="#959595"/>
</svg>
