<svg width="200" height="136" viewBox="0 0 200 136" fill="none" xmlns="http://www.w3.org/2000/svg">
<rect width="200" height="136" fill="#3F3F3F"/>
<path d="M118.5 31.875H80.5V65.125L102.569 43.0518C103.014 42.6065 103.618 42.3564 104.248 42.3564C104.877 42.3564 105.481 42.6065 105.927 43.0518L118.5 55.6488V31.875ZM75.75 29.4834C75.7543 28.8596 76.0039 28.2627 76.4447 27.8214C76.8855 27.3801 77.4823 27.13 78.106 27.125H120.894C122.195 27.125 123.25 28.1819 123.25 29.4834V67.5166C123.246 68.1404 122.996 68.7373 122.555 69.1786C122.114 69.6199 121.518 69.87 120.894 69.875H78.106C77.4809 69.8744 76.8817 69.6256 76.4399 69.1834C75.9981 68.7412 75.75 68.1417 75.75 67.5166V29.4834ZM90 46.125C88.7402 46.125 87.532 45.6246 86.6412 44.7338C85.7504 43.843 85.25 42.6348 85.25 41.375C85.25 40.1152 85.7504 38.907 86.6412 38.0162C87.532 37.1254 88.7402 36.625 90 36.625C91.2598 36.625 92.468 37.1254 93.3588 38.0162C94.2496 38.907 94.75 40.1152 94.75 41.375C94.75 42.6348 94.2496 43.843 93.3588 44.7338C92.468 45.6246 91.2598 46.125 90 46.125Z" fill="#959595"/>
<path d="M71.75 113.488C71.75 113.02 71.9102 112.625 72.2305 112.305C72.5508 111.984 72.9844 111.824 73.5312 111.824C74.0781 111.824 74.5117 111.984 74.832 112.305C75.1523 112.625 75.3125 113.02 75.3125 113.488C75.3125 113.949 75.1523 114.34 74.832 114.66C74.5117 114.973 74.0781 115.129 73.5312 115.129C72.9844 115.129 72.5508 114.973 72.2305 114.66C71.9102 114.34 71.75 113.949 71.75 113.488ZM78.6758 97.9375H84.875C86.1719 97.9375 87.2852 98.1328 88.2148 98.5234C89.1445 98.9141 89.8594 99.4922 90.3594 100.258C90.8594 101.023 91.1094 101.965 91.1094 103.082C91.1094 103.965 90.9531 104.73 90.6406 105.379C90.3281 106.027 89.8867 106.57 89.3164 107.008C88.7539 107.445 88.0898 107.789 87.3242 108.039L86.3164 108.555H80.8438L80.8203 106.012H84.9102C85.5742 106.012 86.125 105.895 86.5625 105.66C87 105.426 87.3281 105.102 87.5469 104.688C87.7734 104.273 87.8867 103.801 87.8867 103.27C87.8867 102.699 87.7773 102.207 87.5586 101.793C87.3398 101.371 87.0078 101.047 86.5625 100.82C86.1172 100.594 85.5547 100.48 84.875 100.48H81.8984V115H78.6758V97.9375ZM88.3086 115L84.3594 107.359L87.7695 107.348L91.7656 114.836V115H88.3086ZM100.719 100.527L95.8555 115H92.4453L98.8203 97.9375H101L100.719 100.527ZM104.785 115L99.8984 100.527L99.6055 97.9375H101.797L108.207 115H104.785ZM104.562 108.66V111.203H95.4102V108.66H104.562ZM113.527 111.73L116.926 97.9375H118.766L118.883 100.844L115.25 115H113.305L113.527 111.73ZM111.383 97.9375L114.172 111.684V115H112.051L108.184 97.9375H111.383ZM122.41 111.625L125.152 97.9375H128.363L124.496 115H122.375L122.41 111.625ZM119.645 97.9375L123.043 111.777L123.242 115H121.297L117.676 100.832L117.816 97.9375H119.645Z" fill="#959595"/>
</svg>
