<svg width="46" height="47" viewBox="0 0 46 47" fill="none" xmlns="http://www.w3.org/2000/svg">
<g clip-path="url(#clip0_381_2700)">
<path d="M23.0041 0.5C10.2974 0.5 0 11.1548 0 24.3025C0 33.984 2.8766 41.1213 10.9049 44.8437C16.0949 47.3622 23.0041 40.4469 19.9842 33.1815C19.0353 30.5178 17.0056 28.4261 14.4312 27.4358L9.06798 25.3868C8.1026 25.0197 8.1026 23.6025 9.06798 23.2353L14.4312 21.1863C17.0056 20.2045 19.0271 18.1043 19.9842 15.4406L21.9645 9.89124C22.146 9.39607 22.5751 9.13994 23.0041 9.13994C23.4332 9.13994 23.8622 9.38753 24.0438 9.89124L26.024 15.4406C26.9729 18.1043 29.0027 20.196 31.577 21.1863L36.9403 23.2353C37.9057 23.6025 37.9057 25.0197 36.9403 25.3868L31.577 27.4358C29.0027 28.4176 26.9812 30.5178 26.024 33.1815C23.0041 40.4469 29.635 47.3622 34.8332 44.8437C42.8533 41.1299 46.0082 33.9926 46.0082 24.3025C46 11.1548 35.7026 0.5 23.0041 0.5Z" fill="white"/>
</g>
<defs>
<clipPath id="clip0_381_2700">
<rect width="46" height="46" fill="white" transform="translate(0 0.5)"/>
</clipPath>
</defs>
</svg>
